<mxfile host="app.diagrams.net" modified="2021-06-10T07:26:18.837Z" agent="5.0 (Windows NT 10.0; Win64; x64) AppleWebKit/537.36 (KHTML, like Gecko) Chrome/91.0.4472.77 Safari/537.36" etag="uLNsrjNMUEuevkbVULPz" version="14.0.4" type="github">
  <diagram id="YzKvw9CzYnN68X_uu2TB" name="Page-1">
    <mxGraphModel dx="1038" dy="556" grid="1" gridSize="10" guides="1" tooltips="1" connect="1" arrows="1" fold="1" page="1" pageScale="1" pageWidth="827" pageHeight="1169" math="0" shadow="0">
      <root>
        <mxCell id="0" />
        <mxCell id="1" parent="0" />
        <mxCell id="k_Furrw-70Y6pS7132DX-3" style="edgeStyle=orthogonalEdgeStyle;rounded=0;orthogonalLoop=1;jettySize=auto;html=1;" edge="1" parent="1" source="k_Furrw-70Y6pS7132DX-1" target="k_Furrw-70Y6pS7132DX-4">
          <mxGeometry relative="1" as="geometry">
            <mxPoint x="370" y="100" as="targetPoint" />
          </mxGeometry>
        </mxCell>
        <mxCell id="k_Furrw-70Y6pS7132DX-1" value="Create structures and folders" style="rounded=1;whiteSpace=wrap;html=1;" vertex="1" parent="1">
          <mxGeometry x="120" y="70" width="130" height="60" as="geometry" />
        </mxCell>
        <mxCell id="k_Furrw-70Y6pS7132DX-7" value="" style="edgeStyle=orthogonalEdgeStyle;rounded=0;orthogonalLoop=1;jettySize=auto;html=1;" edge="1" parent="1" source="k_Furrw-70Y6pS7132DX-4" target="k_Furrw-70Y6pS7132DX-5">
          <mxGeometry relative="1" as="geometry" />
        </mxCell>
        <mxCell id="k_Furrw-70Y6pS7132DX-4" value="develop UI" style="rounded=1;whiteSpace=wrap;html=1;" vertex="1" parent="1">
          <mxGeometry x="320" y="70" width="120" height="60" as="geometry" />
        </mxCell>
        <mxCell id="k_Furrw-70Y6pS7132DX-10" value="" style="edgeStyle=orthogonalEdgeStyle;rounded=0;orthogonalLoop=1;jettySize=auto;html=1;" edge="1" parent="1" source="k_Furrw-70Y6pS7132DX-5" target="k_Furrw-70Y6pS7132DX-9">
          <mxGeometry relative="1" as="geometry">
            <Array as="points">
              <mxPoint x="690" y="90" />
              <mxPoint x="690" y="90" />
            </Array>
          </mxGeometry>
        </mxCell>
        <mxCell id="k_Furrw-70Y6pS7132DX-5" value="Spect / Demo" style="rounded=1;whiteSpace=wrap;html=1;" vertex="1" parent="1">
          <mxGeometry x="520" y="70" width="120" height="60" as="geometry" />
        </mxCell>
        <mxCell id="k_Furrw-70Y6pS7132DX-15" value="" style="edgeStyle=orthogonalEdgeStyle;rounded=0;orthogonalLoop=1;jettySize=auto;html=1;" edge="1" parent="1" source="k_Furrw-70Y6pS7132DX-9" target="k_Furrw-70Y6pS7132DX-14">
          <mxGeometry relative="1" as="geometry" />
        </mxCell>
        <mxCell id="k_Furrw-70Y6pS7132DX-9" value="Make a change&lt;br&gt;Ui / structures&amp;nbsp;/ folders" style="whiteSpace=wrap;html=1;rounded=1;" vertex="1" parent="1">
          <mxGeometry x="720" y="70" width="120" height="60" as="geometry" />
        </mxCell>
        <mxCell id="k_Furrw-70Y6pS7132DX-12" value="" style="endArrow=classic;html=1;" edge="1" parent="1">
          <mxGeometry width="50" height="50" relative="1" as="geometry">
            <mxPoint x="720" y="110" as="sourcePoint" />
            <mxPoint x="640" y="110" as="targetPoint" />
          </mxGeometry>
        </mxCell>
        <mxCell id="k_Furrw-70Y6pS7132DX-17" value="" style="edgeStyle=orthogonalEdgeStyle;rounded=0;orthogonalLoop=1;jettySize=auto;html=1;" edge="1" parent="1" source="k_Furrw-70Y6pS7132DX-14" target="k_Furrw-70Y6pS7132DX-16">
          <mxGeometry relative="1" as="geometry" />
        </mxCell>
        <mxCell id="k_Furrw-70Y6pS7132DX-14" value="Check Api" style="whiteSpace=wrap;html=1;rounded=1;" vertex="1" parent="1">
          <mxGeometry x="720" y="210" width="120" height="60" as="geometry" />
        </mxCell>
        <mxCell id="k_Furrw-70Y6pS7132DX-19" value="" style="edgeStyle=orthogonalEdgeStyle;rounded=0;orthogonalLoop=1;jettySize=auto;html=1;" edge="1" parent="1" source="k_Furrw-70Y6pS7132DX-16" target="k_Furrw-70Y6pS7132DX-18">
          <mxGeometry relative="1" as="geometry" />
        </mxCell>
        <mxCell id="k_Furrw-70Y6pS7132DX-16" value="&lt;span&gt;develop Fun&lt;/span&gt;" style="whiteSpace=wrap;html=1;rounded=1;" vertex="1" parent="1">
          <mxGeometry x="520" y="210" width="120" height="60" as="geometry" />
        </mxCell>
        <mxCell id="k_Furrw-70Y6pS7132DX-21" value="" style="edgeStyle=orthogonalEdgeStyle;rounded=0;orthogonalLoop=1;jettySize=auto;html=1;" edge="1" parent="1" source="k_Furrw-70Y6pS7132DX-18" target="k_Furrw-70Y6pS7132DX-20">
          <mxGeometry relative="1" as="geometry" />
        </mxCell>
        <mxCell id="k_Furrw-70Y6pS7132DX-18" value="Test Angular" style="whiteSpace=wrap;html=1;rounded=1;" vertex="1" parent="1">
          <mxGeometry x="320" y="210" width="120" height="60" as="geometry" />
        </mxCell>
        <mxCell id="k_Furrw-70Y6pS7132DX-20" value="Check Po comments" style="whiteSpace=wrap;html=1;rounded=1;" vertex="1" parent="1">
          <mxGeometry x="120" y="210" width="120" height="60" as="geometry" />
        </mxCell>
      </root>
    </mxGraphModel>
  </diagram>
</mxfile>
